# xmcd CD database file
#
# Track frame offsets:
#	150
#	23162
#	38658
#	50837
#	61641
#	76602
#	87994
#	100081
#	113487
#	134577
#	151636
#	165694
#	178794
#	187186
#	200709
#	214842
#
# Disc length: 3265 seconds
#
# Revision: 1
# Processed by: cddbd v1.5.1PL2 Copyright (c) Steve Scherf et al.
# Submitted via: CDex 1.51
#
DISCID=d00cbf10
DTITLE=Various Artist - Ultimate Piano Works [CD 2)
DYEAR=1900
DGENRE=Jazz
TTITLE0=Mary Lou Williams - O. W.
TTITLE1=Bud Powell - Strike Up The Band
TTITLE2=Thelonius Monk - Who Knows
TTITLE3=Erroll Garner - Play, Piano, Play
TTITLE4=Pete Johnson - Climbin' And Screamin'
TTITLE5=Art Tatum - Battery Bounce
TTITLE6=Billy Kyle - All The Things You Are
TTITLE7=Art Tatum - Blue Skies
TTITLE8=Erroll Garner - A Lick And A Promise
TTITLE9=Art Tatum - Boogie
TTITLE10=Earl Hines - Rosetta
TTITLE11=George Shearing - Conception
TTITLE12=Oscar Peterson - Air Mail Special
TTITLE13=Erroll Garner - Early In Paris
TTITLE14=Sammy Price - My Blue Heaven
TTITLE15=Dave Brubeck - Tea For Two
EXTD=
EXTT0=
EXTT1=
EXTT2=
EXTT3=
EXTT4=
EXTT5=
EXTT6=
EXTT7=
EXTT8=
EXTT9=
EXTT10=
EXTT11=
EXTT12=
EXTT13=
EXTT14=
EXTT15=
PLAYORDER=
